<?xml version="1.0" standalone="no"?>
<!DOCTYPE svg PUBLIC "-//W3C//DTD SVG 20010904//EN"
 "http://www.w3.org/TR/2001/REC-SVG-20010904/DTD/svg10.dtd">
<svg version="1.0" xmlns="http://www.w3.org/2000/svg"
 width="1207.000000pt" height="1207.000000pt" viewBox="0 0 1207.000000 1207.000000"
 preserveAspectRatio="xMidYMid meet">
<metadata>
Created by potrace 1.14, written by Peter Selinger 2001-2017
</metadata>
<g transform="translate(0.000000,1207.000000) scale(0.100000,-0.100000)"
fill="#000000" stroke="none">
<path d="M5191 9280 c-492 -853 -895 -1550 -897 -1550 -1 0 -45 21 -96 48
-108 55 -174 78 -270 93 -156 24 -319 -35 -453 -165 -72 -70 -78 -74 -131 -79
-31 -3 -81 -18 -113 -34 -68 -34 -189 -152 -286 -281 -38 -51 -72 -92 -75 -92
-3 0 -18 20 -33 45 -65 103 -245 239 -462 351 -155 80 -233 104 -339 104 -72
0 -91 -4 -144 -31 -114 -57 -189 -175 -273 -433 -43 -132 -45 -135 -69 -128
-14 4 -59 7 -100 7 -166 0 -263 -89 -464 -423 -184 -306 -483 -863 -736 -1372
-238 -480 -260 -541 -239 -669 24 -153 104 -296 249 -441 85 -86 121 -114 185
-147 98 -49 166 -67 265 -66 129 2 220 49 348 182 64 66 74 74 83 58 30 -51
141 -175 212 -237 226 -196 440 -290 597 -264 l59 10 -18 -31 c-98 -161 -1441
-2498 -1438 -2501 2 -2 2495 -3 5540 -2 l5536 3 -710 1230 c-391 677 -769
1332 -841 1457 l-130 227 1 178 c1 98 4 208 7 246 l7 67 71 0 c175 0 501 -31
921 -86 418 -55 493 -47 632 67 155 125 362 443 431 659 50 153 55 340 13 451
-59 157 -158 233 -356 276 -140 30 -803 28 -1099 -4 l-60 -6 21 34 c92 146
350 481 541 702 137 159 170 201 207 262 87 145 66 304 -71 535 -134 228 -313
406 -487 485 -143 66 -312 73 -422 19 -154 -75 -333 -316 -602 -812 l-40 -74
-12 47 c-41 163 -179 327 -397 474 -176 119 -284 161 -430 168 -88 5 -107 3
-148 -16 -127 -56 -230 -171 -429 -483 l-74 -116 -1033 1789 c-569 985 -1038
1796 -1044 1804 -9 11 -208 -328 -905 -1535z m1688 -297 c429 -744 785 -1361
790 -1372 9 -15 -1 -13 -45 14 -96 58 -145 70 -274 69 -304 -3 -599 -145 -881
-424 l-107 -105 -12 54 c-7 30 -21 74 -31 99 -18 41 -19 76 -19 563 l0 519
-30 0 -30 0 -2 -465 -3 -466 -60 73 -60 73 -5 355 -5 355 -22 3 -23 3 -2 -331
-3 -331 -67 57 -68 57 0 368 0 369 -25 0 -25 0 0 -351 0 -351 -32 22 c-56 37
-190 97 -247 110 -109 25 -244 -12 -338 -94 -23 -20 -62 -67 -87 -104 -39 -59
-50 -69 -98 -86 -85 -30 -150 -80 -273 -209 -63 -66 -116 -118 -118 -116 -2 2
-16 26 -31 52 -15 27 -57 79 -93 118 l-65 69 798 1384 c440 761 802 1381 806
1377 3 -3 357 -614 787 -1358z m3689 -1104 c121 -59 279 -235 363 -404 22 -44
42 -96 45 -115 6 -40 15 -27 -269 -365 -252 -301 -439 -557 -600 -825 -81
-135 -212 -379 -206 -384 2 -2 96 7 209 19 539 60 1044 86 1297 67 87 -6 182
-19 211 -27 46 -14 56 -21 69 -53 22 -51 19 -152 -7 -237 -48 -156 -166 -349
-289 -477 l-76 -78 -58 0 c-31 0 -121 9 -200 20 -222 31 -457 58 -637 75 -167
15 -748 41 -755 33 -7 -7 -35 -145 -51 -253 -9 -59 -18 -231 -23 -420 -6 -195
-14 -339 -21 -368 -16 -62 -44 -81 -105 -75 -127 15 -363 208 -438 358 -37 76
-27 250 35 558 16 84 28 155 25 158 -6 7 -283 -34 -421 -62 -184 -37 -405 -97
-561 -152 l-140 -48 0 -145 c0 -79 9 -233 20 -341 26 -274 15 -305 -105 -296
-39 3 -80 15 -125 37 -124 61 -318 279 -370 416 l-17 44 -67 -33 c-98 -49
-183 -78 -222 -74 -25 2 -39 12 -57 38 -22 32 -24 42 -19 120 3 47 9 96 13
109 7 22 5 23 -27 18 -270 -46 -413 -47 -502 -3 -94 45 -212 166 -278 284 -18
32 -29 41 -43 38 -10 -3 -118 20 -240 50 -222 55 -444 104 -475 104 -20 0 -20
0 15 -258 29 -206 28 -212 -37 -212 -130 0 -379 183 -447 327 -21 46 -27 73
-27 130 l0 73 -185 0 c-197 0 -373 -17 -577 -54 -136 -25 -128 -19 -190 -126
-63 -108 -152 -190 -207 -190 -19 0 -79 71 -118 139 -35 61 -10 58 -208 23
l-105 -19 -17 -89 c-26 -138 -47 -325 -54 -487 -7 -141 -8 -149 -31 -167 -58
-46 -200 -29 -340 40 -137 67 -233 184 -233 282 0 91 103 617 204 1038 25 102
43 186 42 187 -6 6 -988 -1463 -1019 -1523 -38 -75 -46 -79 -111 -60 -133 39
-390 257 -454 385 -23 45 -32 78 -32 112 0 127 72 568 160 986 27 130 48 238
46 240 -2 2 -25 -72 -51 -164 -42 -148 -58 -188 -138 -338 -251 -474 -454
-793 -580 -912 -50 -47 -61 -53 -99 -53 -125 0 -299 167 -359 343 -16 47 -16
54 -2 91 59 153 400 829 650 1291 273 502 434 755 479 755 7 0 77 -43 155 -96
104 -70 144 -92 150 -82 4 7 26 83 49 168 83 307 183 584 216 597 53 20 396
-171 503 -281 34 -35 44 -52 43 -76 0 -17 -89 -293 -196 -613 -177 -528 -254
-782 -270 -891 -7 -54 -4 -50 154 199 470 738 898 1357 1044 1509 l57 59 67
-6 c37 -4 78 -9 92 -12 22 -5 30 1 64 55 79 124 189 210 268 210 181 0 547
-287 548 -430 0 -37 -43 -121 -182 -355 -216 -363 -334 -581 -448 -825 -77
-165 -192 -442 -185 -448 2 -2 49 6 105 19 l101 22 183 276 c516 776 1024
1447 1161 1531 34 21 37 21 89 6 30 -9 58 -21 61 -26 14 -22 35 -8 45 30 21
80 82 208 114 243 42 46 66 47 150 3 161 -84 360 -274 416 -398 39 -86 30
-119 -168 -603 -164 -402 -200 -498 -273 -715 l-58 -175 170 -5 170 -5 29 -35
c16 -19 51 -72 77 -118 26 -46 53 -89 58 -98 7 -10 10 38 10 153 0 157 2 176
33 296 56 217 143 435 253 632 263 472 581 759 921 829 153 32 207 16 313 -90
123 -123 302 -393 375 -564 37 -88 38 -148 0 -222 -40 -80 -147 -175 -171
-151 -4 4 8 48 27 96 37 96 43 157 19 177 -35 29 -297 -10 -477 -70 -449 -151
-744 -456 -829 -860 -26 -125 -31 -358 -10 -455 28 -128 90 -215 153 -215 63
0 315 137 488 266 241 179 352 324 367 479 7 81 27 111 67 101 33 -8 112 -80
151 -137 16 -22 31 -36 35 -32 4 4 40 85 81 178 289 671 843 1620 969 1660 30
10 154 -39 246 -97 148 -93 264 -212 293 -300 11 -34 10 -42 -14 -85 -14 -27
-125 -169 -247 -318 -426 -520 -640 -829 -811 -1170 -69 -139 -120 -255 -115
-261 2 -2 85 17 183 42 213 53 542 121 791 164 98 17 182 35 186 38 4 4 34 80
67 168 291 787 706 1622 968 1947 95 118 134 128 261 66z m-1272 -1514 c-56
-132 -129 -307 -160 -390 -32 -82 -61 -153 -64 -156 -4 -4 -23 -9 -42 -13
l-36 -6 -47 81 c-26 44 -47 85 -47 90 0 20 488 643 497 635 1 -1 -44 -110
-101 -241z m-1835 -159 l16 -34 -41 -12 c-136 -40 -232 -164 -256 -329 -6 -40
-13 -78 -17 -85 -39 -66 -155 -170 -300 -268 l-75 -50 7 73 c33 338 230 580
580 715 33 13 62 23 65 24 3 0 13 -15 21 -34z m-2720 -1478 c144 -287 552
-536 801 -489 170 31 281 151 302 324 4 31 12 57 17 57 5 0 9 -246 9 -620 0
-487 -3 -622 -12 -625 -7 -3 -865 -4 -1905 -3 l-1893 3 217 375 c118 206 217
377 219 379 2 2 38 -33 79 -78 88 -92 183 -159 293 -206 334 -140 633 -76 744
161 29 63 31 75 39 247 5 99 11 182 13 184 2 3 19 -4 38 -14 26 -14 55 -18
134 -18 98 0 103 1 185 42 93 46 186 129 246 220 19 28 44 54 56 57 53 12 285
42 354 44 41 2 44 0 64 -40z m1261 -145 c60 -12 58 6 56 -629 l-3 -579 -67 -3
-68 -3 0 617 0 616 26 -6 c15 -4 40 -10 56 -13z m2731 -70 c-3 -16 -7 -93 -7
-173 0 -126 3 -153 22 -205 42 -111 100 -195 221 -316 129 -129 232 -202 356
-252 74 -29 89 -32 190 -31 90 0 121 4 167 23 68 26 160 106 189 164 11 21 22
37 23 35 9 -10 206 -356 211 -370 7 -17 -88 -18 -1899 -18 l-1906 0 0 468 0
468 78 -38 c102 -50 177 -68 288 -68 l91 0 19 -42 c29 -66 130 -161 196 -186
76 -29 160 -35 235 -19 l62 13 59 -71 c200 -239 462 -369 678 -335 191 30 316
158 345 354 9 62 8 113 -5 264 -9 103 -19 202 -22 220 -4 28 -1 33 23 43 33
13 362 98 381 99 9 0 10 -8 5 -27z m-2493 -650 l0 -493 -65 0 -65 0 0 551 0
551 65 -59 64 -58 1 -492z m-2444 -788 c76 -62 74 -50 74 -512 l0 -413 -120 0
-120 0 0 150 0 150 -60 0 -60 0 0 -150 0 -150 -120 0 -121 0 3 424 3 424 30
38 c57 70 77 75 277 72 l176 -3 38 -30z m694 -55 l0 -90 -75 0 -75 0 0 -390 0
-390 -120 0 -120 0 0 390 0 390 -75 0 -75 0 0 90 0 90 270 0 270 0 0 -90z
m330 -90 l0 -180 60 0 60 0 0 180 0 180 120 0 120 0 0 -480 0 -480 -120 0
-120 0 0 210 0 210 -60 0 -60 0 0 -210 0 -210 -120 0 -120 0 0 480 0 480 120
0 120 0 0 -180z m1006 145 c75 -61 74 -58 74 -445 0 -387 1 -384 -74 -445
l-38 -30 -188 0 -188 0 -38 30 c-76 62 -75 56 -72 457 l3 356 30 38 c57 70 77
75 277 72 l176 -3 38 -30z m498 -172 l105 -208 0 208 1 207 120 0 120 0 0
-480 0 -480 -105 0 -105 0 -104 208 -105 207 0 -207 -1 -208 -120 0 -120 0 0
480 0 480 105 0 105 0 104 -207z m1066 172 c0 -20 -11 -58 -25 -85 -14 -27
-25 -52 -25 -55 0 -3 11 -5 25 -5 l25 0 0 -120 0 -120 -120 0 -120 0 0 147 0
147 62 63 c62 63 63 63 120 63 l58 0 0 -35z m646 0 c68 -55 74 -78 74 -265 0
-187 -6 -210 -74 -265 -36 -28 -44 -30 -148 -35 -133 -6 -138 -10 -138 -112
l0 -68 180 0 180 0 0 -90 0 -90 -301 0 -301 0 4 188 c3 205 7 219 69 281 48
48 85 63 177 70 108 9 112 13 112 143 l0 98 -60 0 -60 0 0 -60 0 -60 -121 0
-121 0 4 94 c3 87 5 97 33 132 57 70 77 75 277 72 l176 -3 38 -30z m680 0 c68
-55 74 -78 74 -265 0 -187 -6 -210 -74 -265 -36 -28 -44 -30 -148 -35 -133 -6
-138 -10 -138 -112 l0 -68 180 0 180 0 0 -90 0 -90 -301 0 -301 0 4 188 c3
205 7 219 69 281 48 48 85 63 177 70 108 9 112 13 112 143 l0 98 -60 0 -60 0
0 -60 0 -60 -121 0 -121 0 4 94 c3 87 5 97 33 132 57 70 77 75 277 72 l176 -3
38 -30z m2372 -1383 c68 -118 122 -216 119 -218 -2 -2 -2308 -3 -5124 -2
l-5120 3 126 218 126 217 4875 -2 4875 -3 123 -213z"/>
<path d="M6033 9875 c-131 -156 -193 -362 -193 -641 l0 -121 -45 -79 c-38 -67
-45 -87 -45 -134 0 -90 11 -160 26 -160 7 0 46 18 86 40 l73 39 45 -26 c55
-32 60 -38 60 -86 l0 -38 48 3 47 3 3 43 c3 39 7 45 49 72 l47 28 78 -39 c43
-21 84 -39 91 -39 11 0 16 24 21 99 8 108 3 127 -53 215 -29 47 -31 56 -31
143 0 213 -35 397 -100 530 -40 82 -130 193 -156 193 -7 0 -30 -20 -51 -45z
m133 -489 c26 -26 34 -42 34 -71 0 -52 -53 -105 -105 -105 -70 0 -115 41 -115
105 0 64 44 104 114 105 30 0 45 -7 72 -34z"/>
<path d="M4828 6127 c-136 -166 -245 -303 -243 -305 3 -4 272 14 372 24 l52 5
6 42 c22 170 65 531 63 533 -2 1 -114 -133 -250 -299z"/>
<path d="M3510 2780 l0 -150 60 0 60 0 0 150 0 150 -60 0 -60 0 0 -150z"/>
<path d="M5540 2630 l0 -300 60 0 60 0 0 300 0 300 -60 0 -60 0 0 -300z"/>
</g>
</svg>
